<svg width="18" height="24" viewBox="0 0 18 24" fill="none" xmlns="http://www.w3.org/2000/svg">
<path d="M9.13004 0C4.5377 0 0.801636 3.73661 0.801636 8.32907C0.801636 12.7497 8.35814 23.0779 8.67989 23.5152L8.98017 23.9239C9.01529 23.9719 9.07121 24 9.13004 24C9.18978 24 9.24534 23.9719 9.28082 23.9239L9.58091 23.5152C9.90285 23.0779 17.4592 12.7497 17.4592 8.32907C17.4592 3.73661 13.7225 0 9.13004 0ZM9.13004 5.34561C10.7755 5.34561 12.1135 6.68368 12.1135 8.32907C12.1135 9.97361 10.7754 11.3125 9.13004 11.3125C7.48556 11.3125 6.14658 9.97361 6.14658 8.32907C6.14658 6.68368 7.4855 5.34561 9.13004 5.34561Z" fill="black"/>
</svg>
