<svg width="168" height="163" viewBox="0 0 168 163" fill="none" xmlns="http://www.w3.org/2000/svg">
<path d="M60.416 11C31.688 11 8 33.983 8 61.856C8 90.055 31.52 112.875 60.416 112.875C71.168 112.875 81.08 109.615 89.48 104.399C89.48 104.399 140.72 154.114 141.56 154.929C145.592 158.841 152.144 158.841 156.344 154.929C160.376 150.854 160.376 144.497 156.344 140.585C155.672 140.096 104.264 90.055 104.264 90.055C109.64 81.905 113 72.288 113 61.856C113.168 33.983 89.648 11 60.416 11ZM60.416 100.813C38.408 100.813 20.768 83.372 20.768 62.019C20.768 40.666 38.576 23.551 60.416 23.551C82.592 23.388 100.568 40.666 100.568 61.856C100.568 83.372 82.592 100.813 60.416 100.813Z" fill="#C2C2C2"/>
<g clip-path="url(#clip0_74_1711)">
<path d="M59.768 47.6755L41.2225 62.9644C41.2225 62.986 41.2171 63.0177 41.2062 63.061C41.1956 63.1039 41.1899 63.1351 41.1899 63.1572V78.6388C41.1899 79.1978 41.3943 79.6822 41.8029 80.0902C42.2114 80.4983 42.6952 80.7037 43.2542 80.7037H55.6392V68.3181H63.897V80.7042H76.2818C76.8408 80.7042 77.3252 80.4992 77.7331 80.0902C78.1417 79.6827 78.3468 79.1979 78.3468 78.6388V63.1572C78.3468 63.0714 78.335 63.0065 78.3142 62.9644L59.768 47.6755Z" fill="#C2C2C2"/>
<path d="M85.4092 59.4808L78.3461 53.6106V40.451C78.3461 40.1502 78.2494 39.9028 78.0553 39.7092C77.8628 39.5158 77.6154 39.4191 77.3139 39.4191H71.1213C70.8201 39.4191 70.5728 39.5158 70.3791 39.7092C70.1858 39.9028 70.0892 40.1503 70.0892 40.451V46.7404L62.2195 40.1605C61.5322 39.6014 60.7149 39.3219 59.7687 39.3219C58.8226 39.3219 58.0054 39.6014 57.3175 40.1605L34.1263 59.4808C33.9114 59.6525 33.7935 59.8837 33.7716 60.174C33.7498 60.4641 33.8249 60.7175 33.9972 60.9324L35.9969 63.3192C36.1692 63.5126 36.3947 63.6309 36.6743 63.6742C36.9324 63.6959 37.1906 63.6204 37.4487 63.4485L59.768 44.8375L82.0875 63.4483C82.2599 63.5984 82.4853 63.6733 82.7649 63.6733H82.8618C83.141 63.6308 83.366 63.5117 83.5392 63.3188L85.5391 60.9323C85.7111 60.7169 85.7864 60.464 85.7641 60.1735C85.742 59.884 85.6237 59.6529 85.4092 59.4808Z" fill="#C2C2C2"/>
</g>
<defs>
<clipPath id="clip0_74_1711">
<rect width="52" height="52" fill="white" transform="translate(33.7681 34.0129)"/>
</clipPath>
</defs>
</svg>
