<svg width="20" height="21" viewBox="0 0 20 21" fill="none" xmlns="http://www.w3.org/2000/svg">
<path fill-rule="evenodd" clip-rule="evenodd" d="M14.7656 13.9295L19.6959 19.1277C20.113 19.5675 20.0992 20.2686 19.6657 20.6914C19.4617 20.8905 19.193 21 18.9097 21C18.6104 21 18.3311 20.8795 18.1235 20.6608L13.1557 15.4232C11.7451 16.4281 10.0952 16.9575 8.36391 16.9575C3.75212 16.9575 0 13.1538 0 8.47874C0 3.80364 3.75212 0 8.36391 0C12.9757 0 16.7278 3.80364 16.7278 8.47874C16.7278 10.4797 16.0332 12.4018 14.7656 13.9295ZM14.5459 8.47874C14.5459 5.0231 11.7727 2.21185 8.36391 2.21185C4.95507 2.21185 2.18189 5.0231 2.18189 8.47874C2.18189 11.9344 4.95507 14.7456 8.36391 14.7456C11.7727 14.7456 14.5459 11.9344 14.5459 8.47874Z" fill="#64626A"/>
</svg>
