<svg width="37" height="29" viewBox="0 0 37 29" fill="none" xmlns="http://www.w3.org/2000/svg">
<path d="M34.0393 25.1336V9.77356C33.6126 10.2536 33.1526 10.6936 32.6593 11.0936C29.086 13.8402 26.246 16.0936 24.1393 17.8536C23.4593 18.4269 22.906 18.8736 22.4793 19.1936C22.0526 19.5136 21.476 19.8369 20.7493 20.1636C20.0226 20.4902 19.3393 20.6536 18.6993 20.6536H18.6793H18.6593C18.0193 20.6536 17.336 20.4902 16.6093 20.1636C15.8826 19.8369 15.306 19.5136 14.8793 19.1936C14.4526 18.8736 13.8993 18.4269 13.2193 17.8536C11.1126 16.0936 8.27264 13.8402 4.69931 11.0936C4.20597 10.6936 3.74597 10.2536 3.31931 9.77356V25.1336C3.31931 25.3069 3.38264 25.4569 3.50931 25.5836C3.63597 25.7102 3.78597 25.7736 3.95931 25.7736H33.3993C33.5726 25.7736 33.7226 25.7102 33.8493 25.5836C33.976 25.4569 34.0393 25.3069 34.0393 25.1336ZM34.0393 4.11356V3.89356V3.62356C34.0393 3.62356 34.036 3.53689 34.0293 3.36356C34.0226 3.19022 34.0026 3.10689 33.9693 3.11356C33.936 3.12022 33.8993 3.06022 33.8593 2.93356C33.8193 2.80689 33.7593 2.75689 33.6793 2.78356C33.5993 2.81022 33.506 2.79356 33.3993 2.73356H3.95931C3.78597 2.73356 3.63597 2.79689 3.50931 2.92356C3.38264 3.05022 3.31931 3.20022 3.31931 3.37356C3.31931 5.61356 4.29931 7.50689 6.25931 9.05356C8.83264 11.0802 11.506 13.1936 14.2793 15.3936C14.3593 15.4602 14.5926 15.6569 14.9793 15.9836C15.366 16.3102 15.6726 16.5602 15.8993 16.7336C16.126 16.9069 16.4226 17.1169 16.7893 17.3636C17.156 17.6102 17.4926 17.7936 17.7993 17.9136C18.106 18.0336 18.3926 18.0936 18.6593 18.0936H18.6793H18.6993C18.966 18.0936 19.2526 18.0336 19.5593 17.9136C19.866 17.7936 20.2026 17.6102 20.5693 17.3636C20.936 17.1169 21.2326 16.9069 21.4593 16.7336C21.686 16.5602 21.9926 16.3102 22.3793 15.9836C22.766 15.6569 22.9993 15.4602 23.0793 15.3936C25.8526 13.1936 28.526 11.0802 31.0993 9.05356C31.8193 8.48022 32.4893 7.71022 33.1093 6.74356C33.7293 5.77689 34.0393 4.90022 34.0393 4.11356ZM36.5993 3.37356V25.1336C36.5993 26.0136 36.286 26.7669 35.6593 27.3936C35.0326 28.0202 34.2793 28.3336 33.3993 28.3336H3.95931C3.07931 28.3336 2.32597 28.0202 1.69931 27.3936C1.07264 26.7669 0.759308 26.0136 0.759308 25.1336V3.37356C0.759308 2.49356 1.07264 1.74022 1.69931 1.11356C2.32597 0.486891 3.07931 0.173557 3.95931 0.173557H33.3993C34.2793 0.173557 35.0326 0.486891 35.6593 1.11356C36.286 1.74022 36.5993 2.49356 36.5993 3.37356Z" fill="#6E6E6E"/>
</svg>
