<svg width="32" height="32" viewBox="0 0 32 32" fill="none" xmlns="http://www.w3.org/2000/svg">
<path d="M31.6571 24.268C30.4659 22.0161 26.3293 19.5744 26.1472 19.4676C25.6157 19.165 25.061 19.0049 24.5419 19.0049C23.7701 19.0049 23.1383 19.3584 22.7557 20.0015C22.1506 20.7252 21.4002 21.5712 21.218 21.7023C19.8085 22.6586 18.7051 22.55 17.4843 21.3291L10.6704 14.5147C9.45726 13.3015 9.34573 12.1845 10.2955 10.7827C10.4284 10.5994 11.2743 9.84836 11.9981 9.24267C12.4596 8.968 12.7764 8.55986 12.9152 8.05918C13.0997 7.39298 12.9638 6.60932 12.5284 5.84584C12.4258 5.67024 9.98286 1.53305 7.73215 0.342442C7.31214 0.119981 6.83874 0.00252151 6.36416 0.00252151C5.58228 0.00252151 4.84668 0.307442 4.29379 0.859739L2.78817 2.36476C0.406946 4.74539 -0.455017 7.444 0.224824 10.3852C0.791952 12.8365 2.44469 15.4449 5.13795 18.1376L13.8614 26.861C17.2701 30.2697 20.5198 31.9984 23.5204 31.9984C23.5204 31.9984 23.5204 31.9984 23.521 31.9984C25.7278 31.9984 27.7851 31.0605 29.6342 29.2114L31.1392 27.7064C32.054 26.7922 32.2616 25.41 31.6571 24.268Z" fill="#6E6E6E"/>
</svg>
