<svg width="23" height="23" viewBox="0 0 23 23" fill="none" xmlns="http://www.w3.org/2000/svg">
<path d="M17.6421 0H13.9693C11.6932 0 9.83801 1.83142 9.79699 4.0979C8.47293 4.27992 7.35431 5.17595 6.89133 6.43397H6.76933C6.49238 6.43397 6.26788 6.65847 6.26788 6.93541V8.46903C6.26788 8.74597 6.49238 8.97047 6.76933 8.97047H13.8237C14.1007 8.97047 14.3252 8.74597 14.3252 8.46903V6.93541C14.3252 6.65847 14.1007 6.43397 13.8237 6.43397H13.7017C13.2392 5.17715 12.1223 4.28167 10.7999 4.09845C10.8404 2.38476 12.246 1.00289 13.9693 1.00289H17.6421C17.9191 1.00289 18.1436 0.77839 18.1436 0.501443C18.1436 0.224496 17.9191 0 17.6421 0ZM13.3222 7.96763H7.27077V7.43691H13.3223V7.96763H13.3222ZM12.6042 6.43397H7.98879C8.43983 5.60488 9.31505 5.06613 10.2965 5.06613C11.2779 5.06613 12.1531 5.60488 12.6042 6.43397Z" fill="#2A2A2A"/>
<path d="M7.36753 10.019C7.09414 9.97515 6.8368 10.1609 6.79278 10.4343L6.54567 11.969C6.50164 12.2425 6.68762 12.4998 6.96106 12.5438C6.98804 12.5481 7.01487 12.5502 7.04139 12.5502C7.28319 12.5502 7.49615 12.3748 7.53587 12.1284L7.78298 10.5937C7.8269 10.3203 7.64092 10.063 7.36753 10.019Z" fill="#2A2A2A"/>
<path d="M6.80155 13.5339C6.52822 13.4899 6.27083 13.6759 6.2268 13.9493L5.97969 15.484C5.93566 15.7574 6.12165 16.0147 6.39508 16.0587C6.42206 16.063 6.44889 16.0651 6.47541 16.0651C6.71721 16.0651 6.93017 15.8897 6.96989 15.6433L7.217 14.1087C7.26098 13.8353 7.07499 13.5779 6.80155 13.5339Z" fill="#2A2A2A"/>
<path d="M6.23557 17.0489C5.96229 17.005 5.70485 17.1909 5.66082 17.4643L5.41371 18.999C5.36968 19.2725 5.55567 19.5297 5.8291 19.5738C5.85608 19.5781 5.88291 19.5802 5.90944 19.5802C6.15123 19.5802 6.36419 19.4048 6.40391 19.1584L6.65102 17.6237C6.695 17.3503 6.50901 17.0929 6.23557 17.0489Z" fill="#2A2A2A"/>
<path d="M5.6697 20.5639C5.39616 20.5201 5.13897 20.7058 5.0949 20.9792L4.86308 22.4188C4.81905 22.6922 5.00504 22.9496 5.27843 22.9936C5.30545 22.9979 5.33228 23 5.35876 23C5.60055 23 5.81352 22.8246 5.85323 22.5782L6.08505 21.1386C6.12907 20.8653 5.94309 20.6079 5.6697 20.5639Z" fill="#2A2A2A"/>
<path d="M8.93886 17.1235C8.66307 17.109 8.42614 17.3209 8.41129 17.5974L8.328 19.1496C8.31316 19.4262 8.52532 19.6624 8.80187 19.6772C8.81099 19.6777 8.82012 19.678 8.82915 19.678C9.09376 19.678 9.3151 19.4708 9.32944 19.2033L9.41273 17.6511C9.42757 17.3746 9.21541 17.1383 8.93886 17.1235Z" fill="#2A2A2A"/>
<path d="M9.12966 13.5683C8.85391 13.5537 8.61688 13.7657 8.60209 14.0422L8.5188 15.5945C8.50396 15.871 8.71612 16.1073 8.99266 16.122C9.00179 16.1225 9.01092 16.1228 9.01994 16.1228C9.28455 16.1228 9.50589 15.9156 9.52023 15.6482L9.60352 14.0959C9.61837 13.8194 9.4062 13.5832 9.12966 13.5683Z" fill="#2A2A2A"/>
<path d="M8.748 20.6787C8.47221 20.6638 8.23523 20.876 8.22043 21.1526L8.14963 22.4717C8.13479 22.7482 8.34695 22.9845 8.62349 22.9993C8.63262 22.9998 8.64175 23 8.65077 23C8.91538 23 9.13672 22.7928 9.15106 22.5254L9.22187 21.2063C9.23676 20.9298 9.0246 20.6936 8.748 20.6787Z" fill="#2A2A2A"/>
<path d="M9.32046 10.0133C9.04377 9.99892 8.80769 10.2106 8.79284 10.4871L8.7095 12.0394C8.69466 12.3159 8.90682 12.5522 9.18337 12.567C9.19254 12.5675 9.20162 12.5677 9.2107 12.5677C9.47531 12.5677 9.6966 12.3605 9.71099 12.0931L9.79433 10.5409C9.80917 10.2643 9.59701 10.0281 9.32046 10.0133Z" fill="#2A2A2A"/>
<path d="M11.7638 19.678C11.7729 19.678 11.7821 19.6777 11.7911 19.6772C12.0677 19.6624 12.2798 19.4261 12.265 19.1496L12.1817 17.5974C12.1669 17.3208 11.9307 17.1089 11.6541 17.1235C11.3776 17.1384 11.1654 17.3746 11.1803 17.6511L11.2636 19.2034C11.2779 19.4708 11.4992 19.678 11.7638 19.678Z" fill="#2A2A2A"/>
<path d="M12.3726 21.1525C12.3577 20.876 12.1221 20.6643 11.845 20.6787C11.5684 20.6935 11.3563 20.9297 11.3711 21.2062L11.4419 22.5253C11.4563 22.7928 11.6776 22.9999 11.9422 22.9999C11.9512 22.9999 11.9604 22.9997 11.9695 22.9992C12.246 22.9844 12.4582 22.7481 12.4434 22.4716L12.3726 21.1525Z" fill="#2A2A2A"/>
<path d="M11.3822 12.5676C11.3913 12.5676 11.4004 12.5674 11.4096 12.5669C11.6861 12.5521 11.8983 12.3158 11.8834 12.0393L11.8001 10.487C11.7853 10.2105 11.5493 9.99852 11.2725 10.0132C10.9959 10.028 10.7838 10.2642 10.7986 10.5408L10.882 12.0931C10.8963 12.3605 11.1176 12.5676 11.3822 12.5676Z" fill="#2A2A2A"/>
<path d="M11.5731 16.1228C11.5821 16.1228 11.5912 16.1226 11.6003 16.1221C11.8769 16.1072 12.089 15.871 12.0742 15.5945L11.9909 14.0422C11.9761 13.7657 11.7401 13.5534 11.4633 13.5684C11.1868 13.5832 10.9746 13.8194 10.9895 14.0959L11.0728 15.6482C11.0871 15.9156 11.3084 16.1228 11.5731 16.1228Z" fill="#2A2A2A"/>
<path d="M14.7639 19.5738C15.0373 19.5298 15.2233 19.2724 15.1793 18.999L14.9321 17.4643C14.8881 17.1909 14.6308 17.0049 14.3574 17.0489C14.084 17.093 13.898 17.3503 13.942 17.6237L14.1891 19.1584C14.2288 19.4049 14.4417 19.5802 14.6836 19.5802C14.71 19.5803 14.7369 19.5782 14.7639 19.5738Z" fill="#2A2A2A"/>
<path d="M15.4981 20.9791C15.4541 20.7057 15.1965 20.5199 14.9233 20.5638C14.6499 20.6078 14.4639 20.8652 14.5079 21.1386L14.7398 22.5781C14.7795 22.8246 14.9924 23 15.2342 23C15.2607 23 15.2876 22.9978 15.3146 22.9935C15.588 22.9495 15.7739 22.6922 15.7299 22.4187L15.4981 20.9791Z" fill="#2A2A2A"/>
<path d="M13.6319 12.5438C13.9053 12.4998 14.0913 12.2425 14.0473 11.9691L13.8002 10.4344C13.7562 10.161 13.499 9.975 13.2254 10.019C12.952 10.0631 12.766 10.3204 12.81 10.5938L13.0572 12.1285C13.0969 12.375 13.3098 12.5503 13.5516 12.5503C13.5781 12.5503 13.6049 12.5482 13.6319 12.5438Z" fill="#2A2A2A"/>
<path d="M14.1979 16.0587C14.4713 16.0147 14.6573 15.7574 14.6133 15.484L14.3662 13.9493C14.3221 13.6759 14.0649 13.4899 13.7914 13.5339C13.518 13.5779 13.332 13.8353 13.376 14.1087L13.6231 15.6434C13.6628 15.8898 13.8758 16.0652 14.1176 16.0652C14.1441 16.0652 14.1709 16.063 14.1979 16.0587Z" fill="#2A2A2A"/>
</svg>
