<svg width="30" height="23" viewBox="0 0 30 23" fill="none" xmlns="http://www.w3.org/2000/svg">
<g clip-path="url(#clip0_133_1209)">
<path d="M28.7501 11.4934V8.9911C28.7501 7.08932 27.5251 5.86323 25.6251 5.86323H11.2501C9.35007 5.86323 8.12511 7.08938 8.12511 8.9911V11.4738L2.04384 11.4872H1.25007V0.877325C1.25007 0.564555 1.02507 0.283045 0.718802 0.239235C0.331322 0.182933 9.15527e-05 0.48321 9.15527e-05 0.858557V21.4839C9.15527e-05 21.7967 0.225092 22.0782 0.531361 22.122C0.918842 22.1783 1.25013 21.878 1.25013 21.5027V17.7492H28.7501V21.4839C28.7501 21.7967 28.9751 22.0782 29.2814 22.122C29.6689 22.1783 30.0001 21.878 30.0001 21.5027V12.7446C30.0001 11.8938 29.6001 11.4997 28.7501 11.4934ZM9.37509 8.9911C9.37509 7.35834 10.5501 7.11436 11.2501 7.11436H25.6251C26.3251 7.11436 27.5001 7.35834 27.5001 8.9911V11.4934H9.37509V8.9911ZM28.7501 16.498H1.25007V12.7446H28.7501V16.498Z" fill="black"/>
<path d="M4.71689 4.52405C2.79953 4.52405 1.24521 6.0798 1.24521 7.99894C1.24521 9.91808 2.79953 11.4738 4.71689 11.4738C6.63425 11.4738 8.18857 9.91808 8.18857 7.99894C8.18857 6.0798 6.63425 4.52405 4.71689 4.52405ZM4.71689 10.3595C3.41441 10.3595 2.35849 9.30263 2.35849 7.99894C2.35849 6.69526 3.41441 5.63836 4.71689 5.63836C6.01937 5.63836 7.07529 6.69526 7.07529 7.99894C7.07529 9.30263 6.01943 10.3595 4.71689 10.3595Z" fill="black"/>
</g>
<defs>
<clipPath id="clip0_133_1209">
<rect width="30" height="23" fill="white"/>
</clipPath>
</defs>
</svg>
