<svg width="28" height="28" viewBox="0 0 28 28" fill="none" xmlns="http://www.w3.org/2000/svg">
<g clip-path="url(#clip0_133_1236)">
<path d="M25.3244 11.6451L26.7545 11.4724C27.4646 11.3866 28.0001 10.7825 28.0001 10.0672C28.0001 9.28678 27.3652 8.65181 26.5847 8.65181H25.5886C24.9799 8.65181 24.4598 9.03804 24.2603 9.5783L22.8672 6.52866C22.3502 5.39632 21.3172 4.55419 20.1039 4.27606C18.0503 3.80547 9.94995 3.80541 7.89624 4.27606C6.68293 4.55425 5.65001 5.39632 5.13313 6.52854L3.73985 9.57812C3.54031 9.03798 3.02028 8.65187 2.41166 8.65187H1.4155C0.635006 8.65181 9.15527e-05 9.28678 9.15527e-05 10.0672C9.15527e-05 10.7825 0.535592 11.3866 1.24577 11.4724L2.67575 11.6451L1.30811 13.0128C0.643275 13.6776 0.325223 14.6302 0.457239 15.5611L0.925036 18.8593C1.04527 19.7071 1.48475 20.4463 2.10967 20.963V22.461C2.10967 23.352 2.83454 24.0769 3.72551 24.0769H6.40504C7.29601 24.0769 8.02088 23.352 8.02088 22.461V21.7335H19.9796V22.4611C19.9796 23.352 20.7045 24.0769 21.5954 24.0769H24.2743C25.1653 24.0769 25.8902 23.352 25.8902 22.4611V20.9633C26.5152 20.4466 26.9548 19.7072 27.075 18.8593L27.5428 15.5611C27.6748 14.6302 27.3568 13.6776 26.692 13.0127L25.3244 11.6451ZM23.7646 20.6626H4.23561C3.1533 20.6626 2.21717 19.8851 2.0071 18.8342H25.9931C25.783 19.885 24.8469 20.6626 23.7646 20.6626ZM20.3083 16.0211L20.8526 17.7633H20.111L19.5667 16.0211H20.3083ZM18.4447 16.0211L18.989 17.7633H9.01097L9.55527 16.0211H18.4447ZM7.88904 17.7633H7.14763L7.69194 16.0211H8.43335L7.88904 17.7633ZM6.02571 17.7633H1.85117L1.60404 16.0211H6.56995L6.02571 17.7633ZM21.9745 17.7633L21.4302 16.0211H26.3961L26.149 17.7633H21.9745ZM25.2441 10.0672C25.2441 9.87725 25.3986 9.72269 25.5886 9.72269H26.5847C26.7747 9.72269 26.9293 9.87725 26.9293 10.0672C26.9293 10.2414 26.7989 10.3884 26.6261 10.4092L25.2441 10.5761V10.0672H25.2441ZM8.13546 5.31982C9.99904 4.89277 18.0012 4.89277 19.8647 5.31982C20.3244 5.42524 20.7483 5.64162 21.1036 5.94004C18.5524 5.498 9.44509 5.49806 6.89645 5.94015C7.25181 5.64168 7.6757 5.42524 8.13546 5.31982ZM5.92457 7.37311C6.25565 7.20546 6.61404 7.0838 6.99254 7.01104C9.28446 6.56888 18.7155 6.56882 21.0084 7.0111C21.3864 7.08374 21.7445 7.20534 22.0755 7.37282L23.7305 10.9954H4.26982L5.92457 7.37311ZM1.07097 10.0672C1.07097 9.87725 1.22554 9.72269 1.4155 9.72269H2.41166C2.60162 9.72269 2.75619 9.87725 2.75619 10.0672V10.5762L1.37427 10.4093C1.20132 10.3884 1.07097 10.2413 1.07097 10.0672ZM3.76906 12.0663H24.2311L25.9349 13.77C26.2531 14.0883 26.4477 14.5091 26.4918 14.9503H1.50843C1.55251 14.5091 1.74706 14.0883 2.06529 13.77L3.76906 12.0663ZM6.95006 22.4611C6.95006 22.7616 6.7056 23.006 6.4051 23.006H3.72557C3.42507 23.006 3.18061 22.7616 3.18061 22.4611V21.5605C3.51401 21.6727 3.86913 21.7335 4.23567 21.7335H6.95006V22.4611ZM24.8194 22.4611C24.8194 22.7616 24.5749 23.006 24.2744 23.006H21.5956C21.2951 23.006 21.0506 22.7616 21.0506 22.4611V21.7335H23.7646C24.1311 21.7335 24.4861 21.6727 24.8195 21.5606V22.4611H24.8194Z" fill="#2A2A2A"/>
</g>
<defs>
<clipPath id="clip0_133_1236">
<rect width="28" height="28" fill="white"/>
</clipPath>
</defs>
</svg>
