<svg width="20" height="21" viewBox="0 0 20 21" fill="none" xmlns="http://www.w3.org/2000/svg">
<path d="M19.4141 14.6406L15.0391 12.7656C14.9219 12.7266 14.8047 12.6875 14.6484 12.6875C14.375 12.6875 14.1016 12.8438 13.9453 13.0391L11.9922 15.4219C8.94531 13.9766 6.52344 11.5547 5.07812 8.50781L7.46094 6.55469C7.65625 6.39844 7.8125 6.125 7.8125 5.8125C7.8125 5.69531 7.77344 5.57812 7.73438 5.46094L5.85938 1.08594C5.70312 0.734375 5.35156 0.5 4.96094 0.5C4.92188 0.5 4.84375 0.539062 4.76562 0.539062L0.703125 1.47656C0.273438 1.59375 0 1.94531 0 2.375C0 12.4141 8.08594 20.5 18.125 20.5C18.5547 20.5 18.9062 20.2266 19.0234 19.7969L19.9609 15.7344C19.9609 15.6562 19.9609 15.5781 19.9609 15.5391C19.9609 15.1484 19.7266 14.7969 19.4141 14.6406Z" fill="#C45648"/>
</svg>
